<svg width="42" height="43" viewBox="0 0 42 43" fill="none" xmlns="http://www.w3.org/2000/svg">
<g id="icon Google">
<path id="Vector" d="M41.7583 19.3832C41.6515 18.2933 40.7325 17.4812 39.6426 17.4812H23.5077C22.3323 17.4812 21.3707 18.4429 21.3707 19.6183V23.2727C21.3707 24.4481 22.3323 25.4098 23.5077 25.4098H33.1459C32.9109 27.3759 31.6286 30.3464 28.7863 32.3339C26.9698 33.5948 24.5549 34.471 21.3707 34.471C21.2211 34.471 21.0928 34.471 20.9433 34.4496C15.4938 34.2786 10.8777 30.6242 9.21078 25.6021C8.76199 24.2558 8.50554 22.8453 8.50554 21.3707C8.50554 19.8961 8.76199 18.4643 9.18941 17.1393C9.31763 16.7546 9.46723 16.37 9.63819 15.9853C11.6043 11.5616 15.8998 8.44143 20.9433 8.29184C21.0715 8.27047 21.2211 8.27046 21.3707 8.27046C24.4267 8.27046 26.7133 9.27487 28.3161 10.3861C29.1496 10.9632 30.2609 10.8349 30.9875 10.1297L33.958 7.2233C34.8983 6.30436 34.8128 4.74428 33.7443 3.97493C30.3464 1.47456 26.2004 0 21.3707 0C21.2211 0 21.0928 2.13798e-05 20.9433 0.0213921C12.7583 0.170987 5.72735 4.91528 2.28667 11.7753C0.833458 14.6817 0 17.93 0 21.3707C0 24.8114 0.833458 28.0597 2.28667 30.9662H2.30804C5.74872 37.8262 12.7797 42.5705 20.9433 42.7201C21.0928 42.7414 21.2211 42.7414 21.3707 42.7414C27.1408 42.7414 31.9919 40.8394 35.5181 37.5697C39.5571 33.8298 41.8866 28.3589 41.8866 21.8409C41.8866 20.9219 41.8438 20.1312 41.7583 19.3832Z" fill="black"/>
</g>
</svg>
