<svg width="49" height="48" viewBox="0 0 49 48" fill="none" xmlns="http://www.w3.org/2000/svg">
<path id="icon_facebook" d="M49 34.056C49 42.792 43.6835 48 34.7655 48H31.85C30.5025 48 29.4 46.92 29.4 45.6V31.752C29.4 31.104 29.939 30.552 30.6005 30.552L34.9125 30.48C35.2555 30.456 35.5495 30.216 35.623 29.88L36.4805 25.296C36.554 24.864 36.211 24.456 35.7455 24.456L30.527 24.528C29.841 24.528 29.302 24 29.2775 23.352L29.1795 17.472C29.1795 17.088 29.498 16.752 29.9145 16.752L35.7945 16.656C36.211 16.656 36.5295 16.344 36.5295 15.936L36.4315 10.176C36.4315 9.76798 36.113 9.456 35.6965 9.456L29.0815 9.55202C25.0145 9.62402 21.7805 12.888 21.854 16.872L21.9765 23.472C22.001 24.144 21.462 24.672 20.776 24.696L17.836 24.744C17.4195 24.744 17.101 25.056 17.101 25.464L17.1745 30.024C17.1745 30.432 17.493 30.744 17.9095 30.744L20.8495 30.696C21.5355 30.696 22.0745 31.224 22.099 31.872L22.3195 45.552C22.344 46.896 21.2415 48 19.8695 48H14.2345C5.3165 48 0 42.792 0 34.032V13.944C0 5.208 5.3165 0 14.2345 0H34.7655C43.6835 0 49 5.208 49 13.944V34.056Z" fill="black"/>
</svg>
