<svg width="24" height="21" viewBox="0 0 24 21" fill="none" xmlns="http://www.w3.org/2000/svg">
<g id="icon">
<path id="Vector" d="M18 0V2.52361H16.5C15.45 2.52361 14.82 2.77597 14.16 3.48258L9.93 7.97461L5.34 3.48258C4.68 2.82644 4.02 2.52361 3 2.52361H0V5.04722H3C2.85 5.04722 3.03 5.14816 3.09 5.12293L7.98 9.94302L3 15.1417H0V17.6653H3C4.05 17.6653 4.68 17.4129 5.34 16.7063L9.93 11.8862L14.91 16.7063C15.57 17.3624 16.23 17.6653 17.25 17.6653H18V20.1889L24 16.4035L18 12.618V15.1417H17.34C17.31 15.1164 17.19 15.0407 17.16 15.0659L11.91 9.86731L16.5 5.04722H18V7.57083L24 3.78541L18 0Z" fill="white"/>
</g>
</svg>
